<?xml version="1.0" standalone="no"?>
<!DOCTYPE svg PUBLIC "-//W3C//DTD SVG 20010904//EN"
 "http://www.w3.org/TR/2001/REC-SVG-20010904/DTD/svg10.dtd">
<svg version="1.0" xmlns="http://www.w3.org/2000/svg"
 width="450.000000pt" height="450.000000pt" viewBox="0 0 450.000000 450.000000"
 preserveAspectRatio="xMidYMid meet">
<metadata>
Created by potrace 1.11, written by Peter Selinger 2001-2013
</metadata>
<g transform="translate(0.000000,450.000000) scale(0.100000,-0.100000)"
fill="#000000" stroke="none">
<path d="M1494 4154 c-27 -31 -54 -62 -59 -68 -6 -6 -71 -87 -146 -181 -678
-852 -1079 -1535 -1155 -1970 -29 -161 -2 -414 63 -605 127 -370 419 -686 782
-843 193 -84 362 -116 586 -112 229 4 410 46 603 141 l87 42 35 -18 c139 -74
322 -135 470 -156 70 -11 318 -11 390 -2 85 12 108 17 201 43 238 68 442 189
620 368 208 209 333 453 394 772 4 17 9 89 12 160 9 215 -35 387 -179 695 -67
143 -274 507 -318 557 -5 7 -10 15 -10 18 0 14 -243 361 -398 569 -177 237
-482 616 -502 624 -4 2 -8 -16 -8 -38 -1 -38 -6 -90 -18 -185 -20 -153 -81
-351 -151 -490 -63 -125 -176 -285 -202 -285 -14 0 -60 103 -69 153 -11 68 -5
217 12 282 l15 60 -29 -35 c-16 -19 -82 -108 -147 -197 l-117 -162 -21 30
c-11 17 -57 80 -102 142 -45 62 -90 123 -100 136 -70 96 -320 409 -427 536
-32 39 -60 71 -61 73 -1 1 -24 -23 -51 -54z m-1034 -2387 c101 -30 179 -76
255 -152 97 -96 162 -197 267 -415 142 -294 187 -380 237 -455 52 -79 139
-171 197 -207 40 -25 138 -64 184 -72 14 -2 -18 -2 -70 1 -52 2 -113 8 -135
13 -22 5 -55 12 -73 15 -115 20 -328 111 -441 187 -244 167 -422 394 -521 667
-16 45 -27 81 -25 81 2 0 -2 18 -10 40 -8 22 -16 57 -19 78 -3 20 -7 53 -11
72 -3 19 -7 66 -9 103 l-4 68 57 -2 c31 -2 85 -11 121 -22z"/>
</g>
</svg>
